<svg id="logo" xmlns="http://www.w3.org/2000/svg" viewBox="0 0 619.87 620.29"><path d="M1265.76,482.8c-13.71-70.23-47.24-129.08-101.13-176.23-45.27-39.62-97.87-64.06-157.21-72.72-90.53-13.23-171.64,9.83-243.3,66.46-9.32,7.37-8.39,11.79,2.75,16.59,6.06,2.61,12.48,4.05,18.76,5.91,25,7.38,46.92,20.77,68.77,34.38a528.07,528.07,0,0,1,45.31,31.35c13,10.13,26.58,14.17,42.55,8.39,5.93-2.14,12.35-2.56,18.58-3.23,7.74-.82,11.64-4.95,13.34-12.2a249.87,249.87,0,0,1,9.32-30.06,149.41,149.41,0,0,1,24.65-43.68c7.48-9.06,12.85-19.05,14.92-30.82,1.35-7.71,5.88-14.14,11-19.73,8-8.74,21.94-5.4,27,6.09,1.7,3.87,2.83,8.14,2.3,12.26-1.28,10,.11,20.05-1.23,29.86-1.65,12.08,2.36,22.23,7.89,32.2,6.23,11.25,13.86,21.67,20.16,32.89,3.21,5.72,6.48,11.41,8.45,17.73,1.62,5.2,2.06,10.26-.9,15.19-2.58,4.32-1.57,7.77,2.24,11,13.49,11.52,15.55,27.28,15.35,43.6-.06,4.7-1.33,9.51.06,14.07,7,23.11,11.26,46.94,18,70.13,1.77,6.09,4.68,11.7,7.72,17.22,3.91,7.1,7.26,8.68,14.83,6.47a432.89,432.89,0,0,1,70.12-14.1c14.13-1.69,28.31-.44,42.47-.77l2-32.4A260.64,260.64,0,0,0,1265.76,482.8Z" transform="translate(-650.59 -230.21)"/><path d="M1096.94,623.94c-5.12-2.29-8.74-1.59-10.54,3.94-2.35,7.25-6.92,13.6-8.32,21.22-.95,5.19-5.15,6.27-9.37,6.75-4.45.51-7-2.42-7.77-6.3-3.65-17.92-15-27.42-32.46-30.68a20.09,20.09,0,0,1-5.15-2c-18.09-9-36.83-9.56-55.7-3.35-8.43,2.77-13.74-.83-18.8-6.43a24.84,24.84,0,0,1-2.69-3.88c-7.42-12.12-7.4-12.08-20.43-7.63-5.87,2-12,1.32-18,.8-8.89-.76-16.52,1.18-23.17,7.4-3.79,3.54-7.92,6.74-13.45,7.71-4.38.76-6.31,4.32-7.18,8.46-1,4.72-3.33,8.78-8.46,9s-9.69-1.4-13-6.8c-6.66-10.76-8.17-21.71-7.84-34.38.52-20,7.72-38,13.09-56.5,5.73-19.73,9.25-39.87,13.55-59.87,2.61-12.14,1.55-13.3-10.07-17.46-14.79-5.3-29.47-12-45.66-9.77-13.81,1.88-27.64,2.58-41.5,3.56a36.36,36.36,0,0,1-23.1-5.85c-19.15-12.29-29-30.45-32.78-52.31-1.65-9.44-2.54-19-1.39-28.23-4.74,8.23-10.49,16.24-15.38,24.79-23.82,41.75-37.46,86.55-40.19,134.56-5.6,98.34,28.13,181.41,99.43,248.62,48.89,46.09,108,71.66,174.74,79.53,7.32.86,14.62,1.34,22,1.61H975c11.87,0,23.56-1.66,35.21-3.57,13-2.13,25.86-4.61,38.32-8.85,3.13-1.06,7.5-1.69,7.32-6-.2-4.47-4.56-5.22-8.11-6.16a16.66,16.66,0,0,0-7.82-.48c-12,2.77-24-.28-36.07,1-9.16,1-17.94-6.17-20.6-15-1.29-4.29-3.1-8.36-4.8-12.48-3-7.23-8.33-11.35-16.13-12a54.46,54.46,0,0,1-15.9-4.23c-10.76-4.32-21.26-4.74-31.76,1.39-6.32,3.7-13.15,6.62-20.93,5.33a6.91,6.91,0,0,0-5.32,1.06c-8.54,7-20.09,9.13-27.73,17.5-4.63,5.06-10.72,8.36-15.65,13.14-4.46,4.33-10.3,2.19-10.81-4-1.84-21.92-4.09-43.83,1-65.75,2.93-12.74,3.86-25.86,7.9-38.47,4.66-14.55,9.85-28.79,17-42.27,3.53-6.61,4.64-7.12,10.44-2.87,10.58,7.75,22.56,9.4,35.26,11.41,15.49,2.44,30.87-.73,46.11,2.07a18.76,18.76,0,0,0,9.39-.29c16.28-5.56,31.6-.56,46.91,4.12,6.52,2,13.05,4,19.6,5.84,11.15,3.11,21.41,1.78,28.68-8.7,2.56-3.69,6.63-5.21,10.57-6.45,15.33-4.84,29.69-12,44.24-18.61,10.66-4.88,10.38-6.83,4.82-16.92C1111.64,632,1105,627.55,1096.94,623.94Z" transform="translate(-650.59 -230.21)"/><path d="M730.78,384.06A39.2,39.2,0,0,0,746.42,401c13.22,8,27.43,11,42.42,12.69,10.32,1.17,20.36,3.24,30.16,8,11.63,5.63,23.18,12.47,36.83,13.12,5.79.74,6-2.31,3.91-6.52-6.18-12.49-17.12-19.4-29.25-25-8.76-4-18-6.8-26.34-12.05-11.35-7.15-21.94-15.31-32.92-22.93-14.4-10-30.39-17.52-44-28.75-2.53-2.09-5.49-3.07-7.37.24-2.22,3.94-9,6.83-4.8,12.67C722.06,362.17,725.61,373.5,730.78,384.06Z" transform="translate(-650.59 -230.21)"/><path d="M896.72,475.31c-.9.28-1.59,1.33-2.3,2.09-6,6.41-5.49,14.89,1.38,24.2C903,511.34,913.41,515,922.36,510c6.52-3.67,13-5.09,23-3.74,3.66.89,9.65-1.53,15.83-2.46,5.22-.77,5.87-3.64,4.42-7.79-1.8-5.18-3.81-10.29-5.71-15.44-1.49-4.08-4.45-6.6-8.66-7.05-7.53-.81-13.2-4.9-18.11-10.09s-10.93-8.09-17.06-10.95c-4-1.87-9.67-.91-8.57,4C909.91,467,906.15,472.32,896.72,475.31Z" transform="translate(-650.59 -230.21)"/><path d="M890.52,748.91c-9.43,1.19-17.22,9-27.38,6.79-4.29-.64-14.15,9.1-13.57,13.14.34,2.32,2,3.6,4,4.47a3.19,3.19,0,0,0,4.58-1.74c2.74-6.08,6.54-4.63,10.79-1.81,1.25.83,3.23,1.86,4.32,1.42,11.51-4.64,22.91-9.55,34.33-14.41.23-.09.38-.36.55-.56,3.76-4.42,2.72-7.84-3-9C900.18,746.22,895.41,748.3,890.52,748.91Z" transform="translate(-650.59 -230.21)"/><path d="M1083.35,603.06c2.17,2.39,3.91,6.32,8.05,4.82,3.55-1.29,4.23-5,4.93-8.39a33.69,33.69,0,0,0,.44-4.29c-.47-15.58-8.23-23-22.22-22.33-3.18.16-6.51.6-8,3.82-1.62,3.39-.58,6.63,1.84,9.39C1073.32,591.76,1078.26,597.47,1083.35,603.06Z" transform="translate(-650.59 -230.21)"/><path d="M888.08,445.13c-5.7,1.26-8,6.12-9.43,11.05a14.51,14.51,0,0,0,3.56,14.45c2,2,4.24.17,4.46-2.14a38.37,38.37,0,0,1,6-17.38C894.94,447.44,892.28,445.43,888.08,445.13Z" transform="translate(-650.59 -230.21)"/></svg>